HIERARCHY
ROOT Hips
{
	OFFSET -3.958830 18.904000 13.208200
	CHANNELS 6 Xposition Yposition Zposition Zrotation Yrotation Xrotation 
	JOINT LHipJoint
	{
		OFFSET 0.000000 0.000000 0.000000
		CHANNELS 3 Zrotation Yrotation Xrotation
		JOINT LeftUpLeg
		{
			OFFSET 1.800000 -1.400000 0.085000
			CHANNELS 3 Zrotation Yrotation Xrotation
			JOINT LeftLeg
			{
				OFFSET 2.215000 -6.000000 0.000000
				CHANNELS 3 Zrotation Yrotation Xrotation
				JOINT LeftFoot
				{
					OFFSET 2.500000 -6.900000 0.000000
					CHANNELS 3 Zrotation Yrotation Xrotation
					JOINT LeftToeBase
					{
						OFFSET 0.200000 -0.500000 1.950000
						CHANNELS 3 Zrotation Yrotation Xrotation
						End Site
						{
							OFFSET 0.000000 0.000000 0.000000
						}
					}
				}
			}
		}
	}
	JOINT RHipJoint
	{
		OFFSET 0.000000 0.000000 0.000000
		CHANNELS 3 Zrotation Yrotation Xrotation
		JOINT RightUpLeg
		{
			OFFSET -1.800000 -1.400000 0.085000
			CHANNELS 3 Zrotation Yrotation Xrotation
			JOINT RightLeg
			{
				OFFSET -2.215000 -6.000000 0.000000
				CHANNELS 3 Zrotation Yrotation Xrotation
				JOINT RightFoot
				{
					OFFSET -2.500000 -6.900000 0.000000
					CHANNELS 3 Zrotation Yrotation Xrotation
					JOINT RightToeBase
					{
						OFFSET -0.200000 -0.500000 1.950000
						CHANNELS 3 Zrotation Yrotation Xrotation
						End Site
						{
							OFFSET 0.000000 0.000000 0.000000
						}
					}
				}
			}
		}
	}
	JOINT LowerBack
	{
		OFFSET 0.000000 0.000000 0.000000
		CHANNELS 3 Zrotation Yrotation Xrotation
		JOINT Spine
		{
			OFFSET -0.087000 1.940000 -0.288900
			CHANNELS 3 Zrotation Yrotation Xrotation
			JOINT Spine1
			{
				OFFSET 0.000000 1.950000 0.060000
				CHANNELS 3 Zrotation Yrotation Xrotation
				JOINT Neck
				{
					OFFSET 0.000000 0.000000 0.000000
					CHANNELS 3 Zrotation Yrotation Xrotation
					JOINT Neck1
					{
						OFFSET 0.000000 1.600000 0.340000
						CHANNELS 3 Zrotation Yrotation Xrotation
						JOINT Head
						{
							OFFSET 0.000000 1.667000 -0.240000
							CHANNELS 3 Zrotation Yrotation Xrotation
							End Site
							{
								OFFSET 0.000000 0.000000 0.000000
							}
						}
					}
				}
				JOINT LeftShoulder
				{
					OFFSET 0.000000 0.000000 0.000000
					CHANNELS 3 Zrotation Yrotation Xrotation
					JOINT LeftArm
					{
						OFFSET 2.700000 1.550000 -0.730000
						CHANNELS 3 Zrotation Yrotation Xrotation
						JOINT LeftForeArm
						{
							OFFSET 5.450000 0.000000 0.000000
							CHANNELS 3 Zrotation Yrotation Xrotation
							JOINT LeftHand
							{
								OFFSET 3.450000 0.000000 0.000000
								CHANNELS 3 Zrotation Yrotation Xrotation
								JOINT LeftHandIndex1
								{
									OFFSET 0.750000 0.000000 0.000000
									CHANNELS 3 Zrotation Yrotation Xrotation
									End Site
									{
										OFFSET 0.000000 0.000000 0.000000
									}
								}
							}
						}
					}
				}
				JOINT RightShoulder
				{
					OFFSET 0.000000 0.000000 0.000000
					CHANNELS 3 Zrotation Yrotation Xrotation
					JOINT RightArm
					{
						OFFSET -2.700000 1.550000 -0.730000
						CHANNELS 3 Zrotation Yrotation Xrotation
						JOINT RightForeArm
						{
							OFFSET -5.450000 0.000000 0.000000
							CHANNELS 3 Zrotation Yrotation Xrotation
							JOINT RightHand
							{
								OFFSET -3.450000 0.000000 0.000000
								CHANNELS 3 Zrotation Yrotation Xrotation
								JOINT RightHandIndex1
								{
									OFFSET -0.750000 0.000000 0.000000
									CHANNELS 3 Zrotation Yrotation Xrotation
									End Site
									{
										OFFSET 0.000000 0.000000 0.000000
									}
								}
							}
						}
					}
				}
			}
		}
	}
}
MOTION
Frames: 9
Frame Time: 0.016667
-0.552180 16.297410 -1.278100 -5.470720 -22.221134 12.172357 -15.224236 12.958399 2.969040 0.904285 -3.746175 -21.143499 -6.864862 6.931751 22.046484 -0.897730 5.329071 3.164688 0.350720 -0.191600 -0.040250 18.296688 -10.833651 2.340333 -8.340401 1.443258 -16.523696 9.105799 -5.811445 14.739152 0.245763 -4.176934 3.394198 0.364470 1.175450 0.249930 -3.395051 -1.401419 -6.143985 -0.852473 4.137361 0.043398 -0.105155 4.126733 7.349884 0.425533 -1.312406 -5.108804 -1.623527 6.585123 17.145867 0.347350 2.383180 4.275740 -17.074424 7.037157 1.041001 -53.115191 0.952629 -1.695838 -88.411864 -66.945297 54.956368 -4.593916 3.672796 0.041010 0.913540 -0.901280 0.497270 16.694784 -5.451566 0.900715 50.805867 -6.555153 -7.560172 36.685825 21.109289 2.723203 1.483524 -2.014373 -0.606630 0.493390 0.184360 -0.229410 
-0.655830 16.297700 -1.274650 -5.923636 -24.302007 11.479429 -15.263454 12.971299 3.040180 0.146236 -3.877315 -21.612854 -6.821868 6.579391 20.835526 -0.947555 5.064998 3.224188 0.412800 -0.138920 0.015600 18.266020 -10.785233 2.330309 -7.348300 1.169748 -14.261108 8.628531 -5.546210 13.425451 0.175416 -4.110019 3.412825 0.374360 1.097970 0.255860 -3.280250 -1.597360 -6.184377 -2.062112 4.553034 0.409117 0.552594 4.665953 8.105073 0.366666 -1.457687 -5.433099 -2.009035 6.562111 18.189400 1.118570 2.270320 2.861690 -16.773491 6.436751 1.080166 -52.469438 -0.107705 -0.742380 -97.622329 -66.965912 62.857214 -4.540717 3.617504 0.115700 0.839320 -0.830690 0.494200 16.494861 -4.591968 1.651518 47.620202 -7.697375 -7.334012 43.965612 24.194494 4.943612 1.444761 -2.078930 -0.581140 0.484390 0.162590 -0.248050 
-0.755770 16.271090 -1.268100 -6.493614 -26.196769 11.038221 -15.291949 12.912965 3.119145 -0.559550 -4.167283 -22.734680 -6.602362 6.274904 20.259363 -0.950702 4.824391 3.287641 0.486860 -0.034670 0.044910 18.257254 -10.746561 2.328123 -6.322298 0.910380 -12.362066 8.085699 -5.306333 12.422486 0.114645 -4.115540 3.414122 0.412820 1.052980 0.268020 -3.226232 -1.655103 -6.209089 -2.831185 4.945697 0.471806 0.758777 5.124088 8.843459 0.559125 -1.144149 -5.598751 -1.554629 6.347110 18.811030 1.744250 2.265870 2.302640 -16.544243 6.123427 0.890473 -51.271239 -1.358153 0.179283 -105.975245 -66.559970 70.671187 -4.472747 3.638902 0.113390 0.806490 -0.784000 0.522500 15.860439 -4.469517 2.230141 45.453629 -9.035783 -7.161007 50.617738 27.997631 7.674656 1.416308 -2.201954 -0.530370 0.460420 0.110760 -0.227700 
-0.854310 16.220470 -1.254780 -7.318637 -27.982956 10.739966 -15.301538 12.849157 3.166407 -0.644936 -4.321505 -23.722286 -6.587871 6.054296 19.492123 -0.955681 4.613285 3.346517 0.560110 0.071400 0.056830 18.262867 -10.732567 2.337931 -5.357060 0.744716 -11.188964 7.684331 -5.170307 12.056056 0.073302 -4.142357 3.424317 0.459470 1.026600 0.266880 -3.223539 -1.624962 -6.224031 -2.985082 5.190283 0.485914 0.708994 5.447873 9.421842 0.621469 -1.027629 -5.539127 -1.436451 6.361771 19.648457 2.557540 2.209320 2.115160 -16.007961 6.221194 0.635611 -50.267258 -2.724073 1.279575 -112.955913 -65.958167 77.749997 -4.386453 3.693825 0.098200 0.787140 -0.759920 0.560750 15.140698 -4.618338 2.382599 43.247700 -9.169842 -6.232227 56.474053 30.140947 10.186910 1.393809 -2.312596 -0.488410 0.447530 0.059190 -0.203640 
-0.946760 16.150710 -1.233930 -8.229821 -29.538309 10.262620 -15.293809 12.803760 3.211240 -0.592983 -4.505525 -24.802253 -5.915620 5.819196 19.670144 -0.980627 4.475176 3.359252 0.608640 0.122280 0.100590 18.272574 -10.792760 2.328708 -4.616348 0.592296 -10.250090 7.484910 -5.402884 13.321072 0.013264 -4.247556 3.371103 0.473920 0.969340 0.275420 -3.238483 -1.500452 -6.245249 -2.495701 5.418605 0.959421 -0.204284 5.843648 9.663292 0.977941 -0.920073 -5.438581 -1.339535 6.113180 20.801434 2.884870 2.373690 1.502200 -16.415167 5.926257 0.086605 -47.472499 -4.225870 2.225562 -122.669872 -65.313749 88.650346 -4.291609 3.718427 0.128630 0.747480 -0.714510 0.558550 14.750516 -4.526768 2.746531 40.977903 -9.622955 -5.427759 62.696395 31.754808 12.840643 1.383572 -2.380945 -0.460860 0.424400 0.033500 -0.213910 
-1.029040 16.066720 -1.216780 -8.967218 -30.780923 9.652078 -15.291641 12.760294 3.315712 -0.302307 -4.849177 -26.362478 -5.659694 5.909454 20.934391 -0.937402 4.483715 3.309171 0.671820 0.202990 0.128710 18.271001 -10.844715 2.287907 -4.153731 0.543328 -10.038655 7.691482 -5.955338 16.197338 -0.059772 -4.430811 3.283190 0.490620 0.904250 0.270560 -3.230331 -1.425807 -6.297980 -2.204688 5.409686 1.770597 -1.052640 6.015565 9.668329 1.154599 -0.992633 -5.360162 -1.572094 5.985436 21.931046 4.173010 2.023780 0.831670 -16.910519 5.590119 -0.399776 -44.887230 -5.544671 2.932256 -129.949555 -64.431421 97.133538 -4.164456 3.787981 0.147940 0.680790 -0.661840 0.573390 14.807010 -4.212306 3.097656 38.057296 -10.104613 -4.598094 69.007634 33.587265 15.957806 1.402704 -2.454918 -0.411370 0.398180 -0.009740 -0.197950 
-1.114080 15.962620 -1.196820 -10.124150 -32.096983 8.883628 -15.281738 12.740403 3.427193 0.911209 -5.090120 -27.832915 -6.017957 6.414518 23.096213 -0.901681 4.732337 3.151364 0.764010 0.291570 0.195290 18.267765 -10.885465 2.265611 -3.734721 0.604467 -9.881280 8.261215 -6.899691 20.291392 -0.199028 -4.751010 3.140623 0.510150 0.798060 0.252000 -3.227456 -1.399547 -6.419053 -1.367933 5.158811 3.330655 -1.995836 6.013794 9.638665 1.194979 -1.516988 -5.486402 -2.618249 6.271487 23.183771 5.997890 1.720530 -1.297440 -17.624917 4.953003 -0.662692 -42.450590 -6.036663 3.065115 -137.702168 -62.978321 105.739480 -3.996687 3.827281 0.249540 0.564240 -0.571290 0.583160 15.325805 -3.290438 3.627412 34.452441 -10.923773 -4.091883 76.122898 35.480169 19.686771 1.416265 -2.480843 -0.381000 0.393000 -0.057830 -0.213250 
-1.189170 15.857420 -1.178690 -11.392235 -33.712494 7.603377 -15.282506 12.675179 3.568874 3.107274 -5.161482 -28.958638 -8.089214 7.729645 25.653225 -0.807337 5.336278 2.857952 0.829590 0.358670 0.290450 18.255506 -10.886468 2.264494 -3.464484 0.898917 -9.659404 9.097338 -8.308950 25.730674 -0.400597 -5.330969 2.904471 0.515790 0.667510 0.223710 -3.203637 -1.358372 -6.634845 -0.631615 5.121441 5.776313 -2.539404 6.273268 9.395824 1.309254 -1.742063 -5.403258 -3.259431 6.011659 25.034084 6.746710 1.894950 -3.930600 -19.358372 3.916488 -1.136955 -39.170436 -6.694374 3.045566 -142.962378 -61.250385 111.418555 -3.870925 3.803190 0.358020 0.449480 -0.464090 0.557780 16.676251 -2.149941 3.998033 30.514035 -11.296200 -3.817563 80.949083 37.185580 22.801324 1.455181 -2.449245 -0.360030 0.393700 -0.100830 -0.251520 
-1.268700 15.736190 -1.147640 -12.737305 -35.992413 6.216200 -15.286129 12.609064 3.684514 5.565654 -4.913210 -29.324268 -10.566640 9.439124 28.170859 -0.671260 6.141382 2.500891 0.884790 0.405030 0.347690 18.246156 -10.815056 2.315212 -3.300231 1.768198 -9.946447 9.774078 -10.113367 32.930530 -0.667874 -6.281388 2.543121 0.515160 0.570090 0.217750 -3.206429 -1.377471 -6.894292 0.309479 5.158258 8.324577 -2.589108 6.639428 9.191328 1.058289 -2.578245 -5.417178 -4.994371 6.286461 26.676704 7.706880 1.884930 -5.781660 -20.709161 3.159753 -1.364100 -36.759284 -6.809822 2.681639 -146.825171 -60.085971 115.721240 -3.766556 3.818299 0.442290 0.356020 -0.387260 0.544530 18.298745 -0.698793 4.311215 26.078139 -11.504757 -3.621445 85.030381 38.773948 25.783832 1.490800 -2.446078 -0.333800 0.372950 -0.126730 -0.273300 
